<svg width="32" height="26" viewBox="0 0 32 26" fill="none" xmlns="http://www.w3.org/2000/svg">
<path d="M30.964 18.7596V10.6926L31.467 10.4271C31.794 10.2571 32 9.92004 32.004 9.55107C32.008 9.18304 31.8085 8.84204 31.4855 8.66457L16.4405 0.614567C16.1395 0.449567 15.7755 0.450535 15.4725 0.617535L0.509945 8.67754C0.191413 8.85507 -0.00555547 9.19204 -0.00355547 9.55757C-0.00155547 9.9231 0.199445 10.2576 0.521976 10.4316L7.09648 13.9311C7.01398 14.0766 6.96298 14.2426 6.96298 14.4216V22.8836C6.96298 23.1686 7.08501 23.4411 7.29798 23.6306C7.51501 23.8231 9.59302 25.5086 15.9465 25.5086C22.2775 25.5086 24.4115 23.9156 24.634 23.7341C24.8665 23.5446 25.001 23.2606 25.001 22.9596V14.2806C25.001 14.1401 24.9715 14.0066 24.9195 13.8856L28.964 11.749V18.7651C28.371 19.1121 27.969 19.7486 27.969 20.4846C27.969 21.5891 28.8645 22.4846 29.969 22.4846C31.0735 22.4846 31.969 21.5891 31.969 20.4846C31.969 19.744 31.5615 19.105 30.964 18.7596H30.964ZM23.001 22.3866C22.215 22.7646 20.135 23.5086 15.9465 23.5086C11.7315 23.5086 9.69845 22.7166 8.96295 22.3356V14.9251L15.457 18.3821C15.6027 18.4609 15.7658 18.5021 15.9315 18.5021C16.0928 18.5022 16.2518 18.4629 16.3945 18.3876L23.001 14.8981V22.3866ZM15.9395 16.3691L3.07695 9.5391L15.962 2.6336L28.887 9.5191L15.9395 16.3691Z" fill="#FFCF25"/>
</svg>
