<svg width="32" height="32" viewBox="0 0 32 32" fill="none" xmlns="http://www.w3.org/2000/svg">
<path d="M31.835 9.23349L27.464 0.87593C27.209 0.38843 26.5495 -0.0100693 26 -0.0100693H15.9395C15.9285 -0.0105381 15.9175 -0.0135068 15.9066 -0.0140381C15.8976 -0.0140381 15.8891 -0.0105068 15.88 -0.0100381H6.00004C5.45004 -0.0100381 4.78904 0.387462 4.53054 0.872961L0.171036 9.06946C-0.0879949 9.55496 -0.0359637 10.3175 0.284505 10.765L15.285 31.676C15.446 31.9005 15.66 32.0139 15.8735 32.0139C16.0855 32.0139 16.298 31.9034 16.46 31.683L31.707 10.925C32.0315 10.4815 32.09 9.72049 31.835 9.23349V9.23349ZM29.449 8.98839H24.091L26.2365 2.8444L29.449 8.98839ZM17.9795 1.9899H24.416L22.4195 7.70639L17.9795 1.9899ZM20.8825 8.98839H11.581L15.977 2.6729L20.8825 8.98839ZM9.80898 8.03389L7.80345 1.9899H14.0164L9.80898 8.03389ZM21.2735 10.9884L15.8974 26.3804L10.7894 10.9884H21.2735ZM13.6539 25.9714L2.90594 10.9884H8.68195L13.6539 25.9714ZM23.392 10.9884H29.1785L18.148 26.0059L23.392 10.9884ZM5.88995 2.5754L8.01795 8.98839H2.47894L5.88995 2.5754Z" fill="#FFCF25"/>
</svg>
