<svg width="32" height="30" viewBox="0 0 32 30" fill="none" xmlns="http://www.w3.org/2000/svg">
<path d="M13.2755 20.2295C20.4925 20.2295 26.085 16.1075 25.999 9.99104C25.999 4.57903 20.2734 0.252533 13.0564 0.252533C5.83844 0.252533 -0.0110312 4.57903 -0.0110312 9.99104C-0.0110312 13.362 1.64247 16.956 5.09547 18.7215C5.09547 18.742 5.08947 18.7575 5.08947 18.78C5.08947 20.245 3.86994 22.2535 3.38947 23.082H3.39147C3.35347 23.172 3.33047 23.2695 3.33047 23.374C3.33047 23.784 3.66097 24.1135 4.07097 24.1135C4.13144 24.1135 4.22997 24.101 4.26544 24.101C4.27544 24.101 4.27897 24.101 4.27794 24.104C6.82997 23.687 10.5985 20.815 11.157 20.1345C11.73 20.2195 12.117 20.233 12.597 20.233C12.801 20.2325 13.018 20.2295 13.2755 20.2295ZM10.334 18.077L9.05344 19.1405C8.75644 19.4835 7.46594 20.5605 6.35497 21.2595C7.03147 19.332 7.00197 18.7215 7.00197 18.7215L7.09597 17.498L6.00597 16.9415C3.23497 15.5245 1.98947 12.5745 1.98947 9.99154C1.98947 5.68953 6.95397 2.25303 13.057 2.25303C19.1595 2.25303 23.9995 5.68953 23.9995 9.99154C23.9804 14.7605 19.441 18.261 13.3385 18.261C13.3385 18.261 12.407 18.297 11.451 18.1555L10.334 18.077ZM32.0103 18.0685C32.0103 15.358 30.9514 13.291 28.3089 11.74C28.2444 12.461 28.0389 13.2345 27.8154 13.914C29.5234 15.0945 30.0109 16.3065 30.0109 18.0685C30.0109 20.2255 29.0059 21.7901 26.6699 22.9855L25.6749 23.4795C25.6749 23.4795 25.7784 26.042 25.9319 26.6905C23.9804 25.26 23.3098 24.0655 23.3098 24.0655L22.2578 24.2275C21.8419 24.288 20.7169 24.289 20.7169 24.289C17.9999 24.289 15.9864 23.6415 14.2689 22.297C14.7354 22.2685 11.4818 22.2695 11.4093 22.333C13.3958 24.759 16.6429 26.289 20.7168 26.289C20.9384 26.289 21.1259 26.291 21.3018 26.291C21.7168 26.291 22.0518 26.2795 22.5468 26.207C23.0309 26.794 25.7414 29.379 27.9473 29.7385C27.9463 29.7365 27.9493 29.7365 27.9588 29.7365C27.9883 29.7365 28.0738 29.747 28.1258 29.747C28.4803 29.747 28.7663 29.462 28.7663 29.1075C28.7663 29.0175 28.7458 28.9325 28.7138 28.8555H28.7158C28.3008 28.1405 27.6493 26.051 27.6493 24.785C27.6493 24.7655 27.6433 24.752 27.6433 24.734C30.6278 23.208 32.0103 20.9815 32.0103 18.0685Z" fill="#FFCF25"/>
</svg>
