<svg width="32" height="32" viewBox="0 0 32 32" fill="none" xmlns="http://www.w3.org/2000/svg">
<path d="M24.9684 30.0011H1.99747V5.01478H16.0297L18.0491 3.06785L17.9972 3.01588H1.99747C0.894367 3.01588 0 3.91089 0 5.01478V30.0011C0 31.105 0.894367 32 1.99747 32H24.9684C26.0715 32 26.9658 31.105 26.9658 30.0011V15.3636L24.9684 17.2716V30.0011ZM30.4265 1.30282C29.5251 0.438291 28.5304 0 27.4692 0C25.8083 0 24.5969 1.07341 24.2673 1.40226C23.7999 1.86401 10.5607 15.0933 10.5607 15.0933C10.4568 15.1992 10.3809 15.3286 10.3419 15.4726C9.98338 16.7983 8.18616 22.6871 8.16818 22.7456C8.0753 23.0474 8.1582 23.3763 8.38041 23.5956C8.45781 23.6734 8.54981 23.7351 8.65111 23.7771C8.75242 23.8191 8.86103 23.8407 8.9707 23.8405C9.05659 23.8405 9.14298 23.828 9.22784 23.8015C9.28876 23.781 15.3606 21.8161 16.3598 21.5178C16.4916 21.4788 16.611 21.4073 16.7099 21.3109C17.3406 20.6882 29.5096 8.6993 30.4944 7.68135C31.5126 6.62993 32.0189 5.537 31.9995 4.4301C31.981 3.3367 31.4497 2.28428 30.4265 1.30282V1.30282ZM29.0597 6.29005C28.5039 6.86374 24.1519 11.1674 16.1246 19.081L15.5103 19.6872C14.59 19.9721 12.3863 20.6807 10.7204 21.2184C11.2567 19.4458 11.9004 17.3045 12.1875 16.2916C13.9029 14.5775 25.2455 3.24425 25.6764 2.81849C25.7603 2.7345 26.5259 1.99841 27.4691 1.99841C28.0045 1.99841 28.5203 2.24277 29.0442 2.7455C29.6704 3.34667 29.993 3.92435 30.002 4.46405C30.012 5.01975 29.6949 5.63391 29.0597 6.29005Z" fill="#FFCF25"/>
</svg>
