<svg width="32" height="32" viewBox="0 0 32 32" fill="none" xmlns="http://www.w3.org/2000/svg">
<path d="M31.7719 16.0425L16.7604 0.318487C16.6671 0.221146 16.5551 0.143712 16.4311 0.0908616C16.3071 0.0380108 16.1737 0.010839 16.0389 0.0109869C15.9041 0.011044 15.7707 0.0383088 15.6467 0.0911473C15.5228 0.143986 15.4107 0.22131 15.3174 0.318487L0.228359 16.042C-0.154141 16.4405 -0.140641 17.073 0.257859 17.456C0.656359 17.838 1.28886 17.827 1.67186 17.4265L3.01583 16.0255V30.989C3.01583 31.5415 3.46383 31.989 4.01583 31.989H11.0018C11.5528 31.989 11.9998 31.5435 12.0018 30.992L12.0333 21.0025H20.0018V30.989C20.0018 31.5415 20.4493 31.989 21.0018 31.989H27.9853C28.5378 31.989 28.9853 31.5415 28.9853 30.989V16.0205L30.3288 17.428C30.4222 17.5252 30.5342 17.6026 30.6582 17.6554C30.7822 17.7082 30.9156 17.7355 31.0504 17.7355C31.2994 17.7355 31.5494 17.6435 31.7429 17.456C32.1409 17.074 32.1539 16.441 31.7719 16.0425V16.0425ZM26.9855 14.213V29.989H22.002V20.003C22.002 19.4505 21.5545 19.003 21.002 19.003H11.037C10.486 19.003 10.039 19.4485 10.037 20L10.0055 29.9895H5.01598V14.213C5.01598 14.1305 5.00298 14.0515 4.98448 13.9745L16.0395 2.45499L27.0215 13.9615C27 14.0425 26.9855 14.126 26.9855 14.213V14.213Z" fill="#FFCF25"/>
</svg>
