<svg width="32" height="32" viewBox="0 0 32 32" fill="none" xmlns="http://www.w3.org/2000/svg">
<path d="M31 25L27 25.0001V6.4406L30.733 2.71259C31.123 2.32209 31.123 1.68856 30.733 1.29806C30.3425 0.907561 29.709 0.907561 29.3185 1.29806L25.612 5.00006H7V1.00006C7 0.447561 6.5525 6.10352e-05 6 6.10352e-05C5.4475 6.10352e-05 5 0.447561 5 1.00006V5.00006H1C0.4475 5.00006 0 5.44756 0 6.00006C0 6.55206 0.4475 7.00006 1 7.00006H5V26.0001C5 26.0921 5.02953 26.1751 5.05253 26.2591C5.06253 26.2971 5.06053 26.3361 5.07503 26.3726C5.17553 26.6246 5.37503 26.8236 5.62703 26.9251C5.67003 26.9426 5.71703 26.9406 5.76103 26.9516C5.84003 26.9716 5.91506 27 6.00003 27H25V31C25 31.5525 25.4475 32 26 32C26.5525 32 27 31.5525 27 31V27H31C31.5525 27 32 26.5525 32 26C32 25.4475 31.5525 25 31 25H31ZM23.609 7.0001L7 23.5871V7.0001H23.609ZM8.415 25.0001L25 8.4381V25.0001H8.415Z" fill="#FFCF25"/>
</svg>
