<svg width="32" height="32" viewBox="0 0 32 32" fill="none" xmlns="http://www.w3.org/2000/svg">
<path d="M30.0155 12.9705L27.449 12.401C27.249 11.761 26.987 11.1485 26.6865 10.5595L28.0749 8.24603C28.5934 7.41753 28.8554 6.19853 28.0749 5.41753L26.6599 4.00353C25.8794 3.22253 24.5615 3.36303 23.7655 3.91503L21.5145 5.349C20.9304 5.046 20.3199 4.7865 19.6854 4.5815L19.1095 1.984C18.9375 1.03153 18.1045 0 17 0H15C13.8955 0 13.2185 1.047 13 2L12.3585 4.5665C11.681 4.7825 11.0305 5.0585 10.4105 5.3855L8.10297 3.916C7.30747 3.364 5.98897 3.2235 5.20847 4.0045L3.79397 5.4185C3.01297 6.2 3.27497 7.4185 3.79397 8.247L5.25497 10.682C4.981 11.234 4.73797 11.805 4.55047 12.4015L1.98447 12.971C1.03147 13.1425 0 13.9755 0 15.08V17.08C0 18.1845 1.047 18.8615 2 19.08L4.5985 19.7295C4.77803 20.2805 5.0025 20.8095 5.2565 21.3225L3.794 23.76C3.27553 24.588 3.01353 25.807 3.794 26.588L5.209 28.002C5.9895 28.7835 7.3075 28.6425 8.1035 28.091L10.416 26.6175C11.0395 26.9465 11.6935 27.225 12.3755 27.4405L13.0155 30C13.2345 30.953 13.911 32 15.0155 32H17.0155C18.12 32 18.953 30.9685 19.125 30.0155L19.702 27.411C20.33 27.208 20.9325 26.952 21.5095 26.653L23.7655 28.0905C24.5615 28.6425 25.88 28.783 26.66 28.0015L28.075 26.5875C28.8555 25.806 28.5935 24.5875 28.075 23.7595L26.6855 21.443C26.965 20.894 27.207 20.323 27.4015 19.729L30 19.08C30.953 18.861 32 18.1845 32 17.08V15.08C32 13.9755 30.969 13.1425 30.0155 12.9705V12.9705ZM30.001 16.939C29.916 17 29.7559 17.0838 29.5529 17.1308L25.8449 18.0568L25.5009 19.1078C25.3454 19.5813 25.1444 20.0618 24.9034 20.5363L24.4014 21.5228L26.3604 24.7893C26.4854 24.9893 26.5439 25.1683 26.5614 25.2738L25.2459 26.5873C25.1189 26.5473 24.9744 26.4953 24.9049 26.4478L21.6129 24.3483L20.5894 24.8779C20.0964 25.1339 19.5904 25.3459 19.0864 25.5089L17.9964 25.8614L17.1724 29.5839C17.1344 29.7829 17.0279 29.9434 16.9549 30.0009H15.1549C15.0939 29.9159 15.0104 29.7559 14.9639 29.5534L14.0434 25.8719L12.978 25.5338C12.4289 25.3608 11.8815 25.1303 11.3485 24.8493L10.32 24.3063L7.02747 26.4048C6.89297 26.4958 6.74897 26.5473 6.61847 26.5473L5.30697 25.2709C5.32447 25.1674 5.37897 24.9964 5.48797 24.8219L7.53347 21.4139L7.04697 20.4344C6.81997 19.9724 6.63997 19.5389 6.49997 19.1094L6.15647 18.0574L2.48494 17.1394C2.25394 17.0869 2.08694 17.0009 1.99994 16.9394V15.0799C2.00094 15.0804 2.00244 15.0809 2.00447 15.0809C2.03797 15.0809 2.20247 14.9638 2.33947 14.9389L6.11197 14.1033L6.45844 13.0008C6.59944 12.5518 6.79194 12.0838 7.04644 11.5704L7.53294 10.5904L5.50897 7.21788C5.38347 7.01687 5.32547 6.83787 5.30797 6.73287L6.62297 5.41834C6.75047 5.45934 6.89397 5.51084 6.96297 5.55834L10.3165 7.69584L11.344 7.15384C11.8715 6.87588 12.417 6.64638 12.966 6.47188L14.029 6.13338L14.9409 2.48441C14.994 2.25344 15.0789 2.08644 15.1409 1.99941H17C16.9865 2.01994 17.115 2.19441 17.1415 2.33894L17.9815 6.13294L19.0705 6.48494C19.581 6.64994 20.094 6.86494 20.593 7.12394L21.6165 7.65544L24.84 5.60194C24.975 5.50991 25.1195 5.45894 25.249 5.45894L26.5615 6.73444C26.544 6.83844 26.489 7.00994 26.38 7.18494L24.4005 10.4814L24.9055 11.4694C25.178 12.0024 25.386 12.5024 25.5405 12.9984L25.886 14.1029L29.5825 14.9234C29.806 14.9649 29.98 15.0939 30.017 15.1639L30.001 16.939ZM16.0134 9.98981C12.6924 9.98981 9.99044 12.6863 9.99044 15.9998C9.99044 19.3128 12.6924 22.0093 16.0134 22.0093C19.3344 22.0093 22.0364 19.3128 22.0364 15.9998C22.0364 12.6863 19.3344 9.98981 16.0134 9.98981V9.98981ZM15.9999 19.9998C13.7944 19.9998 11.9999 18.2053 11.9999 15.9998C11.9999 13.7938 13.7944 11.9998 15.9999 11.9998C18.2059 11.9998 19.9999 13.7938 19.9999 15.9998C19.9999 18.2053 18.2054 19.9998 15.9999 19.9998Z" fill="#FFCF25"/>
</svg>
