<svg width="32" height="22" viewBox="0 0 32 22" fill="none" xmlns="http://www.w3.org/2000/svg">
<path d="M31 16H29.9915V15.9495C29.9915 10.8895 27.2875 6.4555 23.252 4H28.2775C28.624 4.595 29.262 5 30 5C31.1045 5 32 4.1045 32 3C32 1.8955 31.1045 1 30 1C29.2615 1 28.624 1.405 28.2775 2H19V1C19 0.448 18.552 0 18 0H14C13.448 0 13 0.448 13 1V2H3.7225C3.376 1.405 2.73844 1 2 1C0.8955 1 0 1.8955 0 3C0 4.1045 0.8955 5 2 5C2.73847 5 3.376 4.595 3.7225 4H8.7475C4.712 6.456 2.00853 10.8895 2.00853 15.9495V16H1C0.448 16 0 16.448 0 17V21C0 21.552 0.448 22 1 22H5C5.552 22 6 21.552 6 21V17C6 16.448 5.552 16 5 16H4.00853V15.9495C4.00853 10.373 7.83553 5.6785 13 4.3435V5C13 5.552 13.448 6 14 6H18C18.552 6 19 5.552 19 5V4.3435C24.1645 5.679 27.9915 10.3735 27.9915 15.9495V16H27C26.448 16 26 16.448 26 17V21C26 21.552 26.448 22 27 22H31C31.552 22 32 21.552 32 21V17C32 16.448 31.552 16 31 16ZM4 20H2V18H4V20ZM17 4H15V2H17V4ZM30 20H28V18H30V20Z" fill="#FFCF25"/>
</svg>
