<svg width="347" height="86" viewBox="0 0 347 86" fill="none" xmlns="http://www.w3.org/2000/svg">
<path d="M58.3688 22.8108L9.29883 32.0514" stroke="white" stroke-width="0.478643" stroke-miterlimit="10" stroke-linecap="round" stroke-linejoin="round"/>
<path d="M9.29883 46.4543L58.3688 59.3104" stroke="white" stroke-width="0.478643" stroke-miterlimit="10" stroke-linecap="round" stroke-linejoin="round"/>
<path d="M9.29883 34.4392V44.0581" stroke="white" stroke-width="0.478643" stroke-miterlimit="10" stroke-linecap="round" stroke-linejoin="round"/>
<path d="M25.661 32.6062V47.1187" stroke="white" stroke-width="0.478643" stroke-miterlimit="10" stroke-linecap="round" stroke-linejoin="round"/>
<path d="M42.032 30.748V50.1709" stroke="white" stroke-width="0.478643" stroke-miterlimit="10" stroke-linecap="round" stroke-linejoin="round"/>
<path d="M58.3689 28.8899V53.2231" stroke="white" stroke-width="0.478643" stroke-miterlimit="10" stroke-linecap="round" stroke-linejoin="round"/>
<path d="M66.1379 11.384V50.3222" stroke="white" stroke-width="0.126122" stroke-miterlimit="10" stroke-linecap="round" stroke-linejoin="round"/>
<path d="M66.1379 71.3173V32.3792" stroke="white" stroke-width="0.126122" stroke-miterlimit="10" stroke-linecap="round" stroke-linejoin="round"/>
<path d="M80.8188 22.8108L111.845 32.0514" stroke="white" stroke-width="0.478643" stroke-miterlimit="10" stroke-linecap="round" stroke-linejoin="round"/>
<path d="M111.845 46.4543L80.8188 59.3104" stroke="white" stroke-width="0.478643" stroke-miterlimit="10" stroke-linecap="round" stroke-linejoin="round"/>
<path d="M80.8188 28.8899V53.2231" stroke="white" stroke-width="0.478643" stroke-miterlimit="10" stroke-linecap="round" stroke-linejoin="round"/>
<path d="M111.845 34.4392V44.0581" stroke="white" stroke-width="0.478643" stroke-miterlimit="10" stroke-linecap="round" stroke-linejoin="round"/>
<path d="M91.152 50.1709V30.748" stroke="white" stroke-width="0.478643" stroke-miterlimit="10" stroke-linecap="round" stroke-linejoin="round"/>
<path d="M101.511 32.6062V47.1187" stroke="white" stroke-width="0.478643" stroke-miterlimit="10" stroke-linecap="round" stroke-linejoin="round"/>
<path fill-rule="evenodd" clip-rule="evenodd" d="M69.5935 1L120.227 27.8725V50.3811L69.5682 85.0143L69.5935 1Z" stroke="white" stroke-width="0.479265" stroke-miterlimit="22.9256"/>
<path fill-rule="evenodd" clip-rule="evenodd" d="M69.5935 1L120.227 27.8725V50.3811L69.5682 85.0143L69.5935 1Z" stroke="white" stroke-width="0.479265" stroke-miterlimit="22.9256"/>
<path fill-rule="evenodd" clip-rule="evenodd" d="M72.9569 11.4009L72.9401 73.4951L117.344 47.8418V30.7649L72.9569 11.4009Z" stroke="white" stroke-width="0.479265" stroke-miterlimit="22.9256"/>
<path fill-rule="evenodd" clip-rule="evenodd" d="M69.5853 1L1.01678 27.8725V50.3811L69.6189 85.0143L69.5853 1ZM65.9614 11.4009L65.9866 73.4951L3.7158 47.8418V30.7649L65.9614 11.4009Z" fill="white" stroke="white" stroke-width="0.479265" stroke-miterlimit="22.9256"/>
<path d="M163.466 57.8838V53.8517H164.493C165.336 53.8517 166.038 53.6867 166.6 53.3568C167.162 53.0147 167.614 52.4221 167.957 51.579C168.311 50.7237 168.58 49.5385 168.763 48.0235C168.958 46.4961 169.099 44.5534 169.184 42.1952L169.698 29.7323H188.465V57.8838H184.14V33.7644H173.803L173.363 43.8081C173.265 46.1174 173.058 48.1517 172.74 49.9112C172.435 51.6585 171.964 53.1247 171.329 54.3099C170.706 55.4951 169.875 56.387 168.836 56.9857C167.798 57.5844 166.496 57.8838 164.932 57.8838H163.466ZM207.838 58.4703C205.296 58.4703 203.066 57.8655 201.148 56.6558C199.242 55.4462 197.751 53.7539 196.676 51.579C195.613 49.4041 195.082 46.8627 195.082 43.9547C195.082 41.0222 195.613 38.4625 196.676 36.2754C197.751 34.0882 199.242 32.3899 201.148 31.1802C203.066 29.9706 205.296 29.3658 207.838 29.3658C210.379 29.3658 212.603 29.9706 214.509 31.1802C216.427 32.3899 217.918 34.0882 218.981 36.2754C220.056 38.4625 220.594 41.0222 220.594 43.9547C220.594 46.8627 220.056 49.4041 218.981 51.579C217.918 53.7539 216.427 55.4462 214.509 56.6558C212.603 57.8655 210.379 58.4703 207.838 58.4703ZM207.838 54.5848C209.768 54.5848 211.357 54.0899 212.603 53.1002C213.849 52.1105 214.772 50.8093 215.37 49.1964C215.969 47.5836 216.269 45.8363 216.269 43.9547C216.269 42.073 215.969 40.3197 215.37 38.6946C214.772 37.0696 213.849 35.7561 212.603 34.7541C211.357 33.7522 209.768 33.2513 207.838 33.2513C205.907 33.2513 204.319 33.7522 203.073 34.7541C201.826 35.7561 200.904 37.0696 200.305 38.6946C199.706 40.3197 199.407 42.073 199.407 43.9547C199.407 45.8363 199.706 47.5836 200.305 49.1964C200.904 50.8093 201.826 52.1105 203.073 53.1002C204.319 54.0899 205.907 54.5848 207.838 54.5848ZM248.09 19.1755L250.289 21.8147C249.434 22.6456 248.444 23.226 247.32 23.5559C246.196 23.8858 244.926 24.0874 243.508 24.1607C242.091 24.234 240.515 24.3073 238.78 24.3806C236.825 24.4539 235.206 24.9305 233.923 25.8102C232.64 26.6899 231.65 27.9607 230.954 29.6224C230.257 31.2841 229.811 33.3246 229.616 35.7438H229.982C230.935 33.9844 232.255 32.6892 233.941 31.8584C235.627 31.0275 237.436 30.6121 239.366 30.6121C241.565 30.6121 243.545 31.1252 245.304 32.1516C247.064 33.178 248.457 34.6992 249.483 36.7152C250.509 38.7313 251.023 41.2177 251.023 44.1746C251.023 47.1193 250.497 49.6607 249.446 51.799C248.408 53.9372 246.948 55.5867 245.066 56.7475C243.197 57.896 241.003 58.4703 238.486 58.4703C235.969 58.4703 233.764 57.8777 231.87 56.6925C229.976 55.4951 228.504 53.7234 227.453 51.3774C226.402 49.0193 225.877 46.1051 225.877 42.6351V39.6293C225.877 33.3612 226.94 28.6082 229.066 25.3703C231.204 22.1324 234.418 20.4585 238.706 20.3485C240.221 20.2997 241.572 20.2874 242.757 20.3119C243.942 20.3363 244.974 20.2813 245.854 20.1469C246.734 20.0125 247.479 19.6887 248.09 19.1755ZM238.486 54.5848C240.185 54.5848 241.645 54.1571 242.867 53.3018C244.101 52.4466 245.048 51.243 245.707 49.6913C246.367 48.1273 246.697 46.2884 246.697 44.1746C246.697 42.1219 246.361 40.3747 245.689 38.9329C245.029 37.4911 244.082 36.3914 242.848 35.6339C241.614 34.8763 240.136 34.4976 238.413 34.4976C237.155 34.4976 236.024 34.7114 235.022 35.139C234.02 35.5667 233.165 36.1959 232.457 37.0268C231.748 37.8576 231.198 38.8718 230.807 40.0692C230.428 41.2666 230.227 42.6351 230.202 44.1746C230.202 47.327 230.941 49.8501 232.42 51.744C233.898 53.6379 235.92 54.5848 238.486 54.5848ZM259.765 57.8838H255L268.782 20.3485H273.474L287.257 57.8838H282.491L271.275 26.2867H270.981L259.765 57.8838ZM261.524 43.2216H280.732V47.2537H261.524V43.2216ZM292.517 68.4406V29.7323H296.695V34.2043H297.209C297.526 33.7156 297.966 33.0924 298.528 32.3349C299.102 31.5651 299.921 30.8809 300.984 30.2822C302.059 29.6712 303.513 29.3658 305.346 29.3658C307.716 29.3658 309.806 29.9584 311.614 31.1436C313.422 32.3288 314.834 34.0088 315.848 36.1837C316.862 38.3586 317.369 40.9245 317.369 43.8814C317.369 46.8627 316.862 49.4469 315.848 51.634C314.834 53.8089 313.429 55.4951 311.632 56.6925C309.836 57.8777 307.765 58.4703 305.419 58.4703C303.611 58.4703 302.163 58.1709 301.076 57.5722C299.988 56.9613 299.151 56.2709 298.565 55.5012C297.978 54.7192 297.526 54.0716 297.209 53.5584H296.842V68.4406H292.517ZM296.769 43.8081C296.769 45.9341 297.08 47.8096 297.703 49.4347C298.327 51.0475 299.237 52.3121 300.434 53.2285C301.632 54.1327 303.098 54.5848 304.833 54.5848C306.641 54.5848 308.15 54.1083 309.36 53.1552C310.582 52.19 311.498 50.8948 312.109 49.2697C312.732 47.6325 313.044 45.8119 313.044 43.8081C313.044 41.8287 312.738 40.0448 312.127 38.4564C311.529 36.8557 310.618 35.5911 309.396 34.6625C308.187 33.7217 306.666 33.2513 304.833 33.2513C303.073 33.2513 301.595 33.6972 300.398 34.5892C299.2 35.4689 298.296 36.703 297.685 38.2914C297.074 39.8676 296.769 41.7065 296.769 43.8081ZM326.034 29.7323L332.778 41.2422L339.523 29.7323H344.508L335.417 43.8081L344.508 57.8838H339.523L332.778 46.9604L326.034 57.8838H321.048L329.992 43.8081L321.048 29.7323H326.034Z" fill="white"/>
<path d="M167.198 20.3485V24.3806H149.091V57.8838H144.545V20.3485H167.198Z" fill="white"/>
</svg>
