<svg width="20" height="19" viewBox="0 0 20 19" fill="none" xmlns="http://www.w3.org/2000/svg">
<path d="M10.8294 16.7069C10.6401 16.5176 10.8294 16.3284 10.8294 16.1391L12.5325 13.8683C12.7218 13.679 12.911 13.679 12.911 13.679L16.885 13.4898C17.2635 13.4898 17.4527 13.679 17.4527 13.8683L18.0205 17.0853C18.0205 17.2746 18.0205 17.4638 17.8312 17.6531C14.6141 18.7885 9.69392 17.0853 6.09838 13.3006C2.50283 9.32653 1.17816 4.40631 2.50283 1.18924C2.69207 1.18924 2.88131 1 3.07055 1L6.28762 1.75696C6.47686 1.9462 6.6661 2.13544 6.6661 2.51391L6.28762 6.2987C6.09838 6.48794 6.09838 6.67718 5.90914 6.67718L3.63827 8.38033C3.44903 8.38033 3.25979 8.38033 3.07055 8.38033" stroke="#000000" stroke-width="2" stroke-miterlimit="22.9256"/>
</svg>
